<svg id="credit-card" xmlns="http://www.w3.org/2000/svg" width="40" height="28.051" viewBox="0 0 40 28.051">
  <path id="Path_2729" data-name="Path 2729" d="M0,100.152H40v4.635H0Zm0,0" transform="translate(0 -92.328)" fill="#fff"/>
  <path id="Path_2730" data-name="Path 2730" d="M38.656,0H1.344A1.346,1.346,0,0,0,0,1.344V5.479H40V1.344A1.346,1.346,0,0,0,38.656,0Zm0,0" fill="#fff"/>
  <path id="Path_2731" data-name="Path 2731" d="M93.98,265.309h10.854v1.4H93.98Zm0,0" transform="translate(-86.638 -244.582)" fill="#fff"/>
  <path id="Path_2732" data-name="Path 2732" d="M0,201.4a1.346,1.346,0,0,0,1.344,1.344H38.656A1.346,1.346,0,0,0,40,201.4V189.5H0Zm5-7.047a1.278,1.278,0,0,1,1.277-1.277h12.99a1.278,1.278,0,0,1,1.277,1.277v3.537a1.278,1.278,0,0,1-1.277,1.277H6.274A1.278,1.278,0,0,1,5,197.887Zm0,0" transform="translate(0 -174.692)" fill="#fff"/>
</svg>
