<svg xmlns="http://www.w3.org/2000/svg" width="197.475" height="57.43" viewBox="0 0 197.475 57.43">
  <g id="Group_431" data-name="Group 431" transform="translate(-375 -1686.57)">
    <g id="Group_390" data-name="Group 390" transform="translate(375 1689)">
      <path id="Path_1805" data-name="Path 1805" d="M337.755,755.151c.443.075.856.164,1.189.253a6.348,6.348,0,0,1,2.784,1.425c1.494,1.444,2.081,5.384,2.271,7.549.573,3.435-4.789,11.5-6.493,13.985-4.829,7.036-13.6,15.486-22.661,14.574a12.238,12.238,0,0,1-4.278-1.238c-3.158-1.584-5.829-4.027-6.764-7.543a10.226,10.226,0,0,1-.278-3.63,11.179,11.179,0,0,1-1.4-8.92,16.738,16.738,0,0,1,1.456-3.922,27.935,27.935,0,0,1-.106-8.032l-1.538-5.64.592-.774c4.191-5.486,9.576-10,16.3-11.7a22.944,22.944,0,0,1,24.735,8.852c-1.624.555-3.621,1.183-5.381,1.988a10.51,10.51,0,0,1-.426,2.771" transform="translate(-301.77 -738.006)" fill="#e8c54c" fill-rule="evenodd"/>
      <path id="Path_1806" data-name="Path 1806" d="M318.638,792.8a14.176,14.176,0,0,1-3.79.14,12.241,12.241,0,0,1-4.278-1.238c-3.158-1.584-5.829-4.027-6.764-7.543a10.234,10.234,0,0,1-.278-3.63,11.18,11.18,0,0,1-1.4-8.92,16.713,16.713,0,0,1,1.456-3.922,27.948,27.948,0,0,1-.106-8.032l-1.538-5.64.592-.774c4.191-5.486,9.575-10,16.3-11.7a22.943,22.943,0,0,1,24.734,8.852l-3.086-.9s-20.1-2.978-21.6.407a151.892,151.892,0,0,0-5.191,15.265c-.1,1.034-8.054,18.6-7.718,19.389a11.986,11.986,0,0,0,12.665,8.242" transform="translate(-301.772 -738.006)" fill="#f4ecec" fill-rule="evenodd"/>
      <path id="Path_1807" data-name="Path 1807" d="M358.342,767.943a18.687,18.687,0,0,0-9.008-5.7c-6.232-1.969-17.356-2.71-27.465,10.521l1.388,5.093s-.69,5.079.19,8.478c0,0-4.274,6.672-.059,12.1,0,0-1.688,6.182,5.974,10.024s17.668-2.731,24.47-12.642,6.159-12.625,6.159-12.625-.449-5.267-1.754-6.527-4.577-1.431-5.177-1.353l-.265-.342a12.793,12.793,0,0,0,1.153-5.1,26.207,26.207,0,0,1,4.393-1.921" transform="translate(-319.635 -756.454)" fill="#1a1a1a" fill-rule="evenodd"/>
      <path id="Path_1808" data-name="Path 1808" d="M339.415,1057.763a7.5,7.5,0,0,0,.107,3.546c.02.034,2.075,3.577,8.454,4.509,6.411.936,10.858-3.227,11.922-4.4,0,0-9.356,1.444-14.094-2.945a41.331,41.331,0,0,0,6.936.369l-.809-3.561s3.048-1.948,4.3-7.427c0,0-3.392,6.1-9.593,6.158a14.53,14.53,0,0,0,3.483,1.971c-5.495.069-7.847-2.636-9.676-6.935,0,0-3,9.807,10.553,14.236,0,0-7.867-.215-11.587-5.518" transform="translate(-335.661 -1015.782)" fill="#5d534b" fill-rule="evenodd"/>
      <path id="Path_1809" data-name="Path 1809" d="M349.644,1047.851s-3.392,6.1-9.593,6.158a15.709,15.709,0,0,0,1.73,1.144,13.142,13.142,0,0,0,7.863-7.3m-16.819,9.912s-2,.541.107,3.546c5.557,6.32,16.541,2.635,20.376.107,0,0-9.356,1.444-14.094-2.945a14.821,14.821,0,0,1-2.982-3.475c2.685,2.091,7.3.985,7.3.985-5.495.069-7.847-2.636-9.676-6.935,0,0-3,9.807,10.553,14.236C344.412,1063.281,336.545,1063.066,332.826,1057.763Z" transform="translate(-329.072 -1015.782)" fill="#f4ecec" fill-rule="evenodd"/>
      <path id="Path_1810" data-name="Path 1810" d="M374.257,762.254a22.959,22.959,0,0,0-8.642-1.033c-6.51.5-13.686,7.054-16.517,12.007a17.988,17.988,0,0,0,3.514,2.807,34.63,34.63,0,0,1,15.845-6.606L364.4,771.78c6.365,7.925,4.762,14.432.071,23.564,6.326-6.237,8.94-15.258,3.588-23.276a12.1,12.1,0,0,1,2.581,1.728,17.619,17.619,0,0,1,8.2-6.475c-9.307-4.484-15.533-2.86-23.213,2.454,2.932-6.561,11.531-9.186,18.625-7.521" transform="translate(-344.558 -756.461)" fill="#5d534b" fill-rule="evenodd"/>
      <path id="Path_1811" data-name="Path 1811" d="M352.207,712.309c-.637.761-2.535.9-3.919,1.347s-2.531.054-1.938-1.1,3.372-.286,5.857-.252m-5.457,2.961c-2.407.637-3.746-.98-2.211-2.828-5.54.549-5.85,5.538-12.468,11.653-2.167,2,3.2-2.161,5.377-3.507S346.928,716.019,346.75,715.27Zm11.656,2.49c-2.1-1.854-4.811-1.568-8.163-1.312-6.51.5-14.165,7.333-17,12.285a17.985,17.985,0,0,0,3.514,2.807,36.594,36.594,0,0,1,13.158-6.126h0a34,34,0,0,0-7.85.813,21.321,21.321,0,0,1,8.746-5.852c-3.694.5-7.182,2.24-11.035,4.906C343.014,719.079,351.292,716.1,358.407,717.76Z" transform="translate(-328.708 -711.966)" fill="#f4ecec" fill-rule="evenodd"/>
      <path id="Path_1812" data-name="Path 1812" d="M512.683,823.742l-4.056,2.352,2.284.451s8.226,9.437-2.213,23.113c6.326-6.237,8.94-15.258,3.588-23.276a12.1,12.1,0,0,1,2.581,1.729,17.619,17.619,0,0,1,8.2-6.475,22.114,22.114,0,0,0-11.65.8,25.218,25.218,0,0,1,4.709.7s-.97.179-3.447.611" transform="translate(-488.784 -810.775)" fill="#33302d" fill-rule="evenodd"/>
      <path id="Path_1813" data-name="Path 1813" d="M365.98,893.19s1.123.611,3.025-.7,4.276-4.473,7.2-2.706l-.985.141a6.061,6.061,0,0,1-2.71,3.656,7.2,7.2,0,0,0,1.18-3.065c-1.5.571-4.025,3.15-5.038,3.255a4.3,4.3,0,0,0,1.742.47,3.669,3.669,0,0,1-1.485.367,3.271,3.271,0,0,1-2.929-1.421m-3.737-3.333A13.219,13.219,0,0,0,364.467,891c1,.356,4.556-3.934,8.985-5.611,3.4,3.231,4.736,6.088,3.828,11.7,0,0-4.771,5.675-7.789,7.451a12.174,12.174,0,0,1-2.069.392c-1.023.087-4.233-3.231-4.233-3.231a17.39,17.39,0,0,1-1.355-7.863,4.839,4.839,0,0,0,1.63.373,5.052,5.052,0,0,1-.672.811,2.406,2.406,0,0,0,1.779-1.36A6.263,6.263,0,0,1,361.9,892.6,27.326,27.326,0,0,1,362.243,889.856Z" transform="translate(-356.067 -868.835)" fill="#f4ecec" fill-rule="evenodd"/>
      <path id="Path_1814" data-name="Path 1814" d="M365.655,942.546a4.568,4.568,0,0,0,1.236.231,5.05,5.05,0,0,1-.672.811c.045-.008.09-.017.133-.027a2.84,2.84,0,0,1-.7.156.6.6,0,0,0,0-1.171m-.038-.012h0Zm8.532-1.447c1.085-.313,1.981.2,1.031,1.25a5.151,5.151,0,0,1-1.963,1.173l.07-.007.013,0h0c.083-.011.207-.031.363-.063a5.261,5.261,0,0,0,2.268-1.292,7.192,7.192,0,0,0,1.18-3.064A15.351,15.351,0,0,0,374.149,941.087Z" transform="translate(-359.492 -917.397)" fill="#c6ad9c" fill-rule="evenodd"/>
      <path id="Path_1815" data-name="Path 1815" d="M363.958,998.451c-.068-.353-.131-.733-.184-1.14a2.838,2.838,0,0,1,1.089-.34c.828-.124,1.611-.628,1.388-.313a1.95,1.95,0,0,1-.713.506c-.188.131-.474.458-.563.524s-.627.5-.944.712Zm.832,2.874a12.438,12.438,0,0,1-.462-1.327,2.706,2.706,0,0,1,.7-.808c.6-.512.969-1.283.952-.936a1.76,1.76,0,0,1-.311.737c-.084.192-.145.579-.182.674s-.247.688-.391,1.007C364.994,1000.9,364.889,1001.112,364.791,1001.325Zm10.755-.451c-.51.514-1.044,1.033-1.577,1.52-.16-.282-.308-.545-.386-.686a5.513,5.513,0,0,0-1.046-1.4,2.756,2.756,0,0,1-.971-1.362c-.248-.708-.832-1.271-.51-1.157s.425.368.575.5.491.3.566.361.554.426.8.651.467.451.7.655.633.23.986.418C374.829,1000.452,375.183,1000.659,375.545,1000.874Zm3.549-4.163c-.017.116-.035.233-.054.351,0,0-.742.883-1.826,2.061-.415-.294-.8-.274-1.19-.493a3.18,3.18,0,0,1-.939-.645c-.276-.309-.693-.068-1.2-.376a9.344,9.344,0,0,1-1.6-.809c-.533-.448-1.307-.543-1.3-.736s.649-.136.93-.148a15.319,15.319,0,0,0,1.635.249c.583-.026.686.249,1.851.24s.666.142,1.357.112A8.439,8.439,0,0,1,379.094,996.711Z" transform="translate(-357.826 -968.806)" fill="#efdda0" fill-rule="evenodd"/>
      <path id="Path_1816" data-name="Path 1816" d="M399.983,890.638c1.6-1.047,4.515-3.938,7.964-5.245,3.4,3.231,4.736,6.088,3.828,11.7,0,0-4.771,5.675-7.789,7.451,3.992-2.889,3.16-9.942,3.16-9.942,2.978-2.009,2.568-4.672,2.568-4.672l.985-.141c-1.764-1.066-3.327-.337-4.708.7a11.315,11.315,0,0,0-1.006-1.647c-1.94.738-5,1.8-5,1.8Z" transform="translate(-390.562 -868.835)" fill="#c6ad9c" fill-rule="evenodd"/>
      <path id="Path_1817" data-name="Path 1817" d="M467.248,1004.834c-.51.514-1.044,1.033-1.578,1.521-.16-.282-.308-.546-.386-.686l-.078-.14a10.577,10.577,0,0,0,.495-1.448,5.054,5.054,0,0,1,.682.252c.148.079.5.286.864.5m3.549-4.163c-.017.116-.035.232-.054.351,0,0-.742.883-1.826,2.061-.416-.294-.8-.274-1.19-.493a3.182,3.182,0,0,1-.939-.645c-.174-.2-.4-.171-.68-.2.049-.525.071-1.015.076-1.447a4.441,4.441,0,0,0,.908.072c1.165-.008.666.142,1.357.112A8.452,8.452,0,0,1,470.8,1000.671Z" transform="translate(-449.529 -972.766)" fill="#be9918" fill-rule="evenodd"/>
      <path id="Path_1818" data-name="Path 1818" d="M561.213,836.326c1.161,2.576,1.324,5.143-.8,8.838a52.555,52.555,0,0,1-6.692,9.449c6.152-9.291,8.511-12.406,7.082-17.6.147-.224.285-.455.413-.685m-6.411-4.8a9.029,9.029,0,0,1,.83.663,17.621,17.621,0,0,1,8.2-6.475A14.583,14.583,0,0,0,554.8,831.521Zm8.057,4.4s2.73.468,3.427,1.243a7.473,7.473,0,0,1,1.018,3.257c.184,1.886.013,1.621-.757,3.367A60.756,60.756,0,0,1,557.56,857.3s6.8-9.813,8.271-14.11C566.682,840.7,566.959,837.077,562.859,835.921Z" transform="translate(-529.548 -814.849)" fill="#e8c54c" fill-rule="evenodd"/>
      <path id="Path_1819" data-name="Path 1819" d="M605.16,1033.123c4.062-3.6,7.1-6.624,11.545-9.665,2.125-1.455,5-3.483,4.664-6.747-2.767,3.664-5.014,2.344-3.763-1.583.932-2.925-1.046,0-2.064,2.026a92.14,92.14,0,0,1-5.19,8.747c-1.21,1.616-4.394,4.944-5.192,7.221" transform="translate(-576.057 -985.066)" fill="#e8c54c" fill-rule="evenodd"/>
      <path id="Path_1820" data-name="Path 1820" d="M757.157,971.133a8.344,8.344,0,0,1-.1,3.085c-.384,1.4.061,2.519,1.186,1.877s.4-3.187-1.087-4.962" transform="translate(-713.262 -946.389)" fill="#e8c54c" fill-rule="evenodd"/>
      <path id="Path_1821" data-name="Path 1821" d="M578.074,878.243c1.876-2.547,4.29-1.614,5.76-2.214-.251,2.229-1.009,3.86-4.038,5.589a16.663,16.663,0,0,0,2.055-3.51,3.8,3.8,0,0,0-2.949,1.61,8.844,8.844,0,0,0-.828-1.474" transform="translate(-551.569 -860.365)" fill="#f4ecec" fill-rule="evenodd"/>
      <path id="Path_1822" data-name="Path 1822" d="M588.457,876.029c-.251,2.229-1.009,3.86-4.038,5.589a16.665,16.665,0,0,0,2.056-3.51,3.8,3.8,0,0,0-2.949,1.61c-.11-.248-.224-.477-.338-.683a5.434,5.434,0,0,1,2.45-1.561,4.765,4.765,0,0,0,1.525-.73,3.541,3.541,0,0,1-.936.98,3.454,3.454,0,0,0,2.231-1.694" transform="translate(-556.192 -860.365)" fill="#c6ad9c" fill-rule="evenodd"/>
    </g>
    <text id="fungame" transform="translate(503.475 1723.57)" fill="#020c1e" font-size="34" font-family="SegoeUI, Segoe UI" letter-spacing="0.02em"><tspan x="-68.795" y="0">fungame</tspan></text>
  </g>
</svg>
