<svg xmlns="http://www.w3.org/2000/svg" xmlns:xlink="http://www.w3.org/1999/xlink" width="28.35" height="18" viewBox="0 0 28.35 18">
  <defs>
    <clipPath id="clip-path">
      <rect id="Rectangle_6" data-name="Rectangle 6" width="28.35" height="18" transform="translate(1365 336)" fill="#fff" stroke="#707070" stroke-width="1"/>
    </clipPath>
  </defs>
  <g id="Mask_Group_5" data-name="Mask Group 5" transform="translate(-1365 -336)" clip-path="url(#clip-path)">
    <g id="united-states" transform="translate(1364.889 335.64)">
      <path id="Path_9" data-name="Path 9" d="M28.08,71.352H.493A.493.493,0,0,1,0,70.859V53.124a.493.493,0,0,1,.493-.493H28.08a.493.493,0,0,1,.493.493V70.859A.493.493,0,0,1,28.08,71.352Z" transform="translate(0 -52.632)" fill="#f5f5f5"/>
      <g id="Group_15" data-name="Group 15" transform="translate(0 0)">
        <path id="Path_10" data-name="Path 10" d="M28.573,54.072H0v-.947a.493.493,0,0,1,.493-.493H28.08a.493.493,0,0,1,.493.493v.947Z" transform="translate(0 -52.632)" fill="#ff4b55"/>
        <rect id="Rectangle_7" data-name="Rectangle 7" width="28.573" height="1.44" transform="translate(0 5.76)" fill="#ff4b55"/>
        <rect id="Rectangle_8" data-name="Rectangle 8" width="28.573" height="1.44" transform="translate(0 2.88)" fill="#ff4b55"/>
        <path id="Path_11" data-name="Path 11" d="M28.573,146.379H.493A.493.493,0,0,1,0,145.886v-.947H28.573Z" transform="translate(0 -136.299)" fill="#ff4b55"/>
        <rect id="Rectangle_9" data-name="Rectangle 9" width="28.573" height="1.44" transform="translate(0 14.4)" fill="#ff4b55"/>
        <path id="Path_12" data-name="Path 12" d="M28.08,238.687H.493A.493.493,0,0,1,0,238.194v-.947H28.573v.947A.493.493,0,0,1,28.08,238.687Z" transform="translate(0 -219.967)" fill="#ff4b55"/>
        <rect id="Rectangle_10" data-name="Rectangle 10" width="28.573" height="1.44" transform="translate(0 11.52)" fill="#ff4b55"/>
      </g>
      <path id="Path_13" data-name="Path 13" d="M12.808,52.632H.493A.493.493,0,0,0,0,53.125v9.095a.493.493,0,0,0,.493.493H12.808a.493.493,0,0,0,.493-.493V53.125A.493.493,0,0,0,12.808,52.632Z" transform="translate(0 -52.632)" fill="#41479b"/>
      <g id="Group_16" data-name="Group 16" transform="translate(0.795 1.099)">
        <path id="Path_14" data-name="Path 14" d="M9.086,64.4l.109.327.345,0a.046.046,0,0,1,.027.084l-.277.2.1.329a.046.046,0,0,1-.071.052l-.28-.2-.28.2a.046.046,0,0,1-.071-.052l.1-.329-.277-.2a.046.046,0,0,1,.027-.084l.345,0L9,64.4A.046.046,0,0,1,9.086,64.4Z" transform="translate(-8.498 -64.373)" fill="#f5f5f5"/>
        <path id="Path_15" data-name="Path 15" d="M9.086,82.681l.109.327.345,0a.046.046,0,0,1,.027.084l-.277.2.1.329a.046.046,0,0,1-.071.052l-.28-.2-.28.2a.046.046,0,0,1-.071-.052l.1-.329-.277-.2a.046.046,0,0,1,.027-.084l.345,0L9,82.681A.046.046,0,0,1,9.086,82.681Z" transform="translate(-8.498 -80.939)" fill="#f5f5f5"/>
        <path id="Path_16" data-name="Path 16" d="M9.086,100.958l.109.327.345,0a.046.046,0,0,1,.027.084l-.277.2.1.329a.046.046,0,0,1-.071.052l-.28-.2-.28.2a.046.046,0,0,1-.071-.052l.1-.329-.277-.2a.046.046,0,0,1,.027-.084l.345,0L9,100.958A.046.046,0,0,1,9.086,100.958Z" transform="translate(-8.498 -97.505)" fill="#f5f5f5"/>
        <path id="Path_17" data-name="Path 17" d="M9.086,119.234l.109.327.345,0a.046.046,0,0,1,.027.084l-.277.2.1.329a.046.046,0,0,1-.071.052l-.28-.2-.28.2a.046.046,0,0,1-.071-.052l.1-.329-.277-.2a.046.046,0,0,1,.027-.084l.345,0L9,119.234A.046.046,0,0,1,9.086,119.234Z" transform="translate(-8.498 -114.07)" fill="#f5f5f5"/>
        <path id="Path_18" data-name="Path 18" d="M9.086,137.51l.109.327.345,0a.046.046,0,0,1,.027.084l-.277.2.1.329a.046.046,0,0,1-.071.052l-.28-.2-.28.2a.046.046,0,0,1-.071-.052l.1-.329-.277-.2a.046.046,0,0,1,.027-.084l.345,0L9,137.51A.046.046,0,0,1,9.086,137.51Z" transform="translate(-8.498 -130.636)" fill="#f5f5f5"/>
        <path id="Path_19" data-name="Path 19" d="M23.271,73.365l.109.327.345,0a.046.046,0,0,1,.027.084l-.277.2.1.329a.046.046,0,0,1-.071.052l-.28-.2-.28.2a.046.046,0,0,1-.071-.052l.1-.329-.277-.2a.046.046,0,0,1,.027-.084l.345,0,.109-.327A.046.046,0,0,1,23.271,73.365Z" transform="translate(-21.356 -72.495)" fill="#f5f5f5"/>
        <path id="Path_20" data-name="Path 20" d="M23.271,91.642l.109.327.345,0a.046.046,0,0,1,.027.084l-.277.2.1.329a.046.046,0,0,1-.071.052l-.28-.2-.28.2a.046.046,0,0,1-.071-.052l.1-.329-.277-.2a.046.046,0,0,1,.027-.084l.345,0,.109-.327A.046.046,0,0,1,23.271,91.642Z" transform="translate(-21.356 -89.061)" fill="#f5f5f5"/>
        <path id="Path_21" data-name="Path 21" d="M23.271,109.918l.109.327.345,0a.046.046,0,0,1,.027.084l-.277.2.1.329a.046.046,0,0,1-.071.052l-.28-.2-.28.2a.046.046,0,0,1-.071-.052l.1-.329-.277-.2a.046.046,0,0,1,.027-.084l.345,0,.109-.327A.046.046,0,0,1,23.271,109.918Z" transform="translate(-21.356 -105.626)" fill="#f5f5f5"/>
        <path id="Path_22" data-name="Path 22" d="M23.271,128.2l.109.327.345,0a.046.046,0,0,1,.027.084l-.277.2.1.329a.046.046,0,0,1-.071.052l-.28-.2-.28.2a.046.046,0,0,1-.071-.052l.1-.329-.277-.2a.046.046,0,0,1,.027-.084l.345,0,.109-.327A.046.046,0,0,1,23.271,128.2Z" transform="translate(-21.356 -122.193)" fill="#f5f5f5"/>
        <path id="Path_23" data-name="Path 23" d="M37.457,64.4l.109.327.345,0a.046.046,0,0,1,.027.084l-.277.2.1.329a.046.046,0,0,1-.071.052l-.28-.2-.28.2a.046.046,0,0,1-.071-.052l.1-.329-.277-.2a.046.046,0,0,1,.027-.084l.345,0,.109-.327A.046.046,0,0,1,37.457,64.4Z" transform="translate(-34.214 -64.373)" fill="#f5f5f5"/>
        <path id="Path_24" data-name="Path 24" d="M37.457,82.681l.109.327.345,0a.046.046,0,0,1,.027.084l-.277.2.1.329a.046.046,0,0,1-.071.052l-.28-.2-.28.2a.046.046,0,0,1-.071-.052l.1-.329-.277-.2a.046.046,0,0,1,.027-.084l.345,0,.109-.327A.046.046,0,0,1,37.457,82.681Z" transform="translate(-34.214 -80.939)" fill="#f5f5f5"/>
        <path id="Path_25" data-name="Path 25" d="M37.457,100.958l.109.327.345,0a.046.046,0,0,1,.027.084l-.277.2.1.329a.046.046,0,0,1-.071.052l-.28-.2-.28.2a.046.046,0,0,1-.071-.052l.1-.329-.277-.2a.046.046,0,0,1,.027-.084l.345,0,.109-.327A.046.046,0,0,1,37.457,100.958Z" transform="translate(-34.214 -97.505)" fill="#f5f5f5"/>
        <path id="Path_26" data-name="Path 26" d="M37.457,119.234l.109.327.345,0a.046.046,0,0,1,.027.084l-.277.2.1.329a.046.046,0,0,1-.071.052l-.28-.2-.28.2a.046.046,0,0,1-.071-.052l.1-.329-.277-.2a.046.046,0,0,1,.027-.084l.345,0,.109-.327A.046.046,0,0,1,37.457,119.234Z" transform="translate(-34.214 -114.07)" fill="#f5f5f5"/>
        <path id="Path_27" data-name="Path 27" d="M37.457,137.51l.109.327.345,0a.046.046,0,0,1,.027.084l-.277.2.1.329a.046.046,0,0,1-.071.052l-.28-.2-.28.2a.046.046,0,0,1-.071-.052l.1-.329-.277-.2a.046.046,0,0,1,.027-.084l.345,0,.109-.327A.046.046,0,0,1,37.457,137.51Z" transform="translate(-34.214 -130.636)" fill="#f5f5f5"/>
        <path id="Path_28" data-name="Path 28" d="M51.644,73.365l.109.327.345,0a.046.046,0,0,1,.027.084l-.277.2.1.329a.046.046,0,0,1-.071.052l-.28-.2-.28.2a.046.046,0,0,1-.071-.052l.1-.329-.277-.2A.046.046,0,0,1,51.1,73.7l.345,0,.109-.327A.046.046,0,0,1,51.644,73.365Z" transform="translate(-47.072 -72.495)" fill="#f5f5f5"/>
        <path id="Path_29" data-name="Path 29" d="M51.644,91.642l.109.327.345,0a.046.046,0,0,1,.027.084l-.277.2.1.329a.046.046,0,0,1-.071.052l-.28-.2-.28.2a.046.046,0,0,1-.071-.052l.1-.329-.277-.2a.046.046,0,0,1,.027-.084l.345,0,.109-.327A.046.046,0,0,1,51.644,91.642Z" transform="translate(-47.072 -89.061)" fill="#f5f5f5"/>
        <path id="Path_30" data-name="Path 30" d="M51.644,109.918l.109.327.345,0a.046.046,0,0,1,.027.084l-.277.2.1.329a.046.046,0,0,1-.071.052l-.28-.2-.28.2a.046.046,0,0,1-.071-.052l.1-.329-.277-.2a.046.046,0,0,1,.027-.084l.345,0,.109-.327A.046.046,0,0,1,51.644,109.918Z" transform="translate(-47.072 -105.626)" fill="#f5f5f5"/>
        <path id="Path_31" data-name="Path 31" d="M51.644,128.2l.109.327.345,0a.046.046,0,0,1,.027.084l-.277.2.1.329a.046.046,0,0,1-.071.052l-.28-.2-.28.2a.046.046,0,0,1-.071-.052l.1-.329-.277-.2a.046.046,0,0,1,.027-.084l.345,0,.109-.327A.046.046,0,0,1,51.644,128.2Z" transform="translate(-47.072 -122.193)" fill="#f5f5f5"/>
        <path id="Path_32" data-name="Path 32" d="M65.829,64.4l.109.327.345,0a.046.046,0,0,1,.027.084l-.277.2.1.329a.046.046,0,0,1-.071.052l-.28-.2-.28.2a.046.046,0,0,1-.071-.052l.1-.329-.277-.2a.046.046,0,0,1,.027-.084l.345,0,.109-.327A.046.046,0,0,1,65.829,64.4Z" transform="translate(-59.93 -64.373)" fill="#f5f5f5"/>
        <path id="Path_33" data-name="Path 33" d="M65.829,82.681l.109.327.345,0a.046.046,0,0,1,.027.084l-.277.2.1.329a.046.046,0,0,1-.071.052l-.28-.2-.28.2a.046.046,0,0,1-.071-.052l.1-.329-.277-.2a.046.046,0,0,1,.027-.084l.345,0,.109-.327A.046.046,0,0,1,65.829,82.681Z" transform="translate(-59.93 -80.939)" fill="#f5f5f5"/>
        <path id="Path_34" data-name="Path 34" d="M65.829,100.958l.109.327.345,0a.046.046,0,0,1,.027.084l-.277.2.1.329a.046.046,0,0,1-.071.052l-.28-.2-.28.2a.046.046,0,0,1-.071-.052l.1-.329-.277-.2a.046.046,0,0,1,.027-.084l.345,0,.109-.327A.046.046,0,0,1,65.829,100.958Z" transform="translate(-59.93 -97.505)" fill="#f5f5f5"/>
        <path id="Path_35" data-name="Path 35" d="M65.829,119.234l.109.327.345,0a.046.046,0,0,1,.027.084l-.277.2.1.329a.046.046,0,0,1-.071.052l-.28-.2-.28.2a.046.046,0,0,1-.071-.052l.1-.329-.277-.2a.046.046,0,0,1,.027-.084l.345,0,.109-.327A.046.046,0,0,1,65.829,119.234Z" transform="translate(-59.93 -114.07)" fill="#f5f5f5"/>
        <path id="Path_36" data-name="Path 36" d="M65.829,137.51l.109.327.345,0a.046.046,0,0,1,.027.084l-.277.2.1.329a.046.046,0,0,1-.071.052l-.28-.2-.28.2a.046.046,0,0,1-.071-.052l.1-.329-.277-.2a.046.046,0,0,1,.027-.084l.345,0,.109-.327A.046.046,0,0,1,65.829,137.51Z" transform="translate(-59.93 -130.636)" fill="#f5f5f5"/>
        <path id="Path_37" data-name="Path 37" d="M80.015,73.365l.109.327.345,0a.046.046,0,0,1,.027.084l-.277.2.1.329a.046.046,0,0,1-.071.052l-.28-.2-.28.2a.046.046,0,0,1-.071-.052l.1-.329-.277-.2a.046.046,0,0,1,.027-.084l.345,0,.109-.327A.046.046,0,0,1,80.015,73.365Z" transform="translate(-72.788 -72.495)" fill="#f5f5f5"/>
        <path id="Path_38" data-name="Path 38" d="M80.015,91.642l.109.327.345,0a.046.046,0,0,1,.027.084l-.277.2.1.329a.046.046,0,0,1-.071.052l-.28-.2-.28.2a.046.046,0,0,1-.071-.052l.1-.329-.277-.2a.046.046,0,0,1,.027-.084l.345,0,.109-.327A.046.046,0,0,1,80.015,91.642Z" transform="translate(-72.788 -89.061)" fill="#f5f5f5"/>
        <path id="Path_39" data-name="Path 39" d="M80.015,109.918l.109.327.345,0a.046.046,0,0,1,.027.084l-.277.2.1.329a.046.046,0,0,1-.071.052l-.28-.2-.28.2a.046.046,0,0,1-.071-.052l.1-.329-.277-.2a.046.046,0,0,1,.027-.084l.345,0,.109-.327A.046.046,0,0,1,80.015,109.918Z" transform="translate(-72.788 -105.626)" fill="#f5f5f5"/>
        <path id="Path_40" data-name="Path 40" d="M80.015,128.2l.109.327.345,0a.046.046,0,0,1,.027.084l-.277.2.1.329a.046.046,0,0,1-.071.052l-.28-.2-.28.2a.046.046,0,0,1-.071-.052l.1-.329-.277-.2a.046.046,0,0,1,.027-.084l.345,0,.109-.327A.046.046,0,0,1,80.015,128.2Z" transform="translate(-72.788 -122.193)" fill="#f5f5f5"/>
        <path id="Path_41" data-name="Path 41" d="M94.2,64.4l.109.327.345,0a.046.046,0,0,1,.027.084l-.277.2.1.329a.046.046,0,0,1-.071.052l-.28-.2-.28.2a.046.046,0,0,1-.071-.052l.1-.329-.277-.2a.046.046,0,0,1,.027-.084l.345,0,.109-.327A.046.046,0,0,1,94.2,64.4Z" transform="translate(-85.647 -64.373)" fill="#f5f5f5"/>
        <path id="Path_42" data-name="Path 42" d="M94.2,82.681l.109.327.345,0a.046.046,0,0,1,.027.084l-.277.2.1.329a.046.046,0,0,1-.071.052l-.28-.2-.28.2a.046.046,0,0,1-.071-.052l.1-.329-.277-.2a.046.046,0,0,1,.027-.084l.345,0,.109-.327A.046.046,0,0,1,94.2,82.681Z" transform="translate(-85.647 -80.939)" fill="#f5f5f5"/>
        <path id="Path_43" data-name="Path 43" d="M94.2,100.958l.109.327.345,0a.046.046,0,0,1,.027.084l-.277.2.1.329a.046.046,0,0,1-.071.052l-.28-.2-.28.2a.046.046,0,0,1-.071-.052l.1-.329-.277-.2a.046.046,0,0,1,.027-.084l.345,0,.109-.327A.046.046,0,0,1,94.2,100.958Z" transform="translate(-85.647 -97.505)" fill="#f5f5f5"/>
        <path id="Path_44" data-name="Path 44" d="M94.2,119.234l.109.327.345,0a.046.046,0,0,1,.027.084l-.277.2.1.329a.046.046,0,0,1-.071.052l-.28-.2-.28.2a.046.046,0,0,1-.071-.052l.1-.329-.277-.2a.046.046,0,0,1,.027-.084l.345,0,.109-.327A.046.046,0,0,1,94.2,119.234Z" transform="translate(-85.647 -114.07)" fill="#f5f5f5"/>
        <path id="Path_45" data-name="Path 45" d="M94.2,137.51l.109.327.345,0a.046.046,0,0,1,.027.084l-.277.2.1.329a.046.046,0,0,1-.071.052l-.28-.2-.28.2a.046.046,0,0,1-.071-.052l.1-.329-.277-.2a.046.046,0,0,1,.027-.084l.345,0,.109-.327A.046.046,0,0,1,94.2,137.51Z" transform="translate(-85.647 -130.636)" fill="#f5f5f5"/>
        <path id="Path_46" data-name="Path 46" d="M108.387,73.365l.109.327.345,0a.046.046,0,0,1,.027.084l-.277.2.1.329a.046.046,0,0,1-.071.052l-.28-.2-.28.2a.046.046,0,0,1-.071-.052l.1-.329-.277-.2a.046.046,0,0,1,.027-.084l.345,0,.109-.327A.046.046,0,0,1,108.387,73.365Z" transform="translate(-98.505 -72.495)" fill="#f5f5f5"/>
        <path id="Path_47" data-name="Path 47" d="M108.387,91.642l.109.327.345,0a.046.046,0,0,1,.027.084l-.277.2.1.329a.046.046,0,0,1-.071.052l-.28-.2-.28.2a.046.046,0,0,1-.071-.052l.1-.329-.277-.2a.046.046,0,0,1,.027-.084l.345,0,.109-.327A.046.046,0,0,1,108.387,91.642Z" transform="translate(-98.505 -89.061)" fill="#f5f5f5"/>
        <path id="Path_48" data-name="Path 48" d="M108.387,109.918l.109.327.345,0a.046.046,0,0,1,.027.084l-.277.2.1.329a.046.046,0,0,1-.071.052l-.28-.2-.28.2a.046.046,0,0,1-.071-.052l.1-.329-.277-.2a.046.046,0,0,1,.027-.084l.345,0,.109-.327A.046.046,0,0,1,108.387,109.918Z" transform="translate(-98.505 -105.626)" fill="#f5f5f5"/>
        <path id="Path_49" data-name="Path 49" d="M108.387,128.2l.109.327.345,0a.046.046,0,0,1,.027.084l-.277.2.1.329a.046.046,0,0,1-.071.052l-.28-.2-.28.2a.046.046,0,0,1-.071-.052l.1-.329-.277-.2a.046.046,0,0,1,.027-.084l.345,0,.109-.327A.046.046,0,0,1,108.387,128.2Z" transform="translate(-98.505 -122.193)" fill="#f5f5f5"/>
        <path id="Path_50" data-name="Path 50" d="M122.574,64.4l.109.327.345,0a.046.046,0,0,1,.027.084l-.277.2.1.329a.046.046,0,0,1-.071.052l-.28-.2-.28.2a.046.046,0,0,1-.071-.052l.1-.329-.277-.2a.046.046,0,0,1,.027-.084l.345,0,.109-.327A.046.046,0,0,1,122.574,64.4Z" transform="translate(-111.363 -64.373)" fill="#f5f5f5"/>
        <path id="Path_51" data-name="Path 51" d="M122.574,82.681l.109.327.345,0a.046.046,0,0,1,.027.084l-.277.2.1.329a.046.046,0,0,1-.071.052l-.28-.2-.28.2a.046.046,0,0,1-.071-.052l.1-.329-.277-.2a.046.046,0,0,1,.027-.084l.345,0,.109-.327A.046.046,0,0,1,122.574,82.681Z" transform="translate(-111.363 -80.939)" fill="#f5f5f5"/>
        <path id="Path_52" data-name="Path 52" d="M122.574,100.958l.109.327.345,0a.046.046,0,0,1,.027.084l-.277.2.1.329a.046.046,0,0,1-.071.052l-.28-.2-.28.2a.046.046,0,0,1-.071-.052l.1-.329-.277-.2a.046.046,0,0,1,.027-.084l.345,0,.109-.327A.046.046,0,0,1,122.574,100.958Z" transform="translate(-111.363 -97.505)" fill="#f5f5f5"/>
        <path id="Path_53" data-name="Path 53" d="M122.574,119.234l.109.327.345,0a.046.046,0,0,1,.027.084l-.277.2.1.329a.046.046,0,0,1-.071.052l-.28-.2-.28.2a.046.046,0,0,1-.071-.052l.1-.329-.277-.2a.046.046,0,0,1,.027-.084l.345,0,.109-.327A.046.046,0,0,1,122.574,119.234Z" transform="translate(-111.363 -114.07)" fill="#f5f5f5"/>
        <path id="Path_54" data-name="Path 54" d="M122.574,137.51l.109.327.345,0a.046.046,0,0,1,.027.084l-.277.2.1.329a.046.046,0,0,1-.071.052l-.28-.2-.28.2a.046.046,0,0,1-.071-.052l.1-.329-.277-.2a.046.046,0,0,1,.027-.084l.345,0,.109-.327A.046.046,0,0,1,122.574,137.51Z" transform="translate(-111.363 -130.636)" fill="#f5f5f5"/>
      </g>
    </g>
  </g>
</svg>
