<svg xmlns="http://www.w3.org/2000/svg" xmlns:xlink="http://www.w3.org/1999/xlink" width="254" height="36" viewBox="0 0 254 36">
  <defs>
    <radialGradient id="radial-gradient" cx="0.5" cy="0.5" r="0.8" gradientTransform="matrix(0.69, -0.724, 0.75, 0.715, -0.22, 0.504)" gradientUnits="objectBoundingBox">
      <stop offset="0" stop-color="#f5db74"/>
      <stop offset="1" stop-color="#e0bb26"/>
    </radialGradient>
  </defs>
  <g id="Group_571" data-name="Group 571" transform="translate(-101.485 -1046.699)">
    <g id="Group_557" data-name="Group 557" transform="translate(230.948 1046.699)">
      <path id="Path_2637" data-name="Path 2637" d="M312.7,1055.586c-18.47,0-30,.323-40.176.606-15.127.422-27.074.755-54.111-.179l-.31-.011a16.305,16.305,0,0,0-6.606.668,7.328,7.328,0,0,0-4.758,5.417,6.384,6.384,0,0,0,1.372,4.981,7.143,7.143,0,0,0,4.43,2.481,7,7,0,0,0,1.054.081,6.24,6.24,0,0,0,3.6-1.093,5.087,5.087,0,0,0,2.163-4.422,4.223,4.223,0,0,0-3.259-3.788,3.65,3.65,0,0,0-2.737.631,3.38,3.38,0,0,0-1.428,2.188.854.854,0,1,0,1.683.292,1.671,1.671,0,0,1,.722-1.067,1.97,1.97,0,0,1,1.45-.35,2.5,2.5,0,0,1,1.867,2.23,3.331,3.331,0,0,1-1.444,2.878,4.724,4.724,0,0,1-3.418.718,5.428,5.428,0,0,1-3.365-1.872,4.635,4.635,0,0,1-1.007-3.607,5.7,5.7,0,0,1,3.69-4.089,15.093,15.093,0,0,1,5.929-.554l.313.011c27.09.935,39.061.6,54.217.179,10.164-.282,21.684-.6,40.13-.6a.862.862,0,0,0,0-1.724Z" transform="translate(-206.667 -1044.551)" fill="url(#radial-gradient)"/>
      <path id="Path_2638" data-name="Path 2638" d="M302.817,1050.92a3.745,3.745,0,0,0,.635-2.272,2.321,2.321,0,0,0-.623-1.443,1.635,1.635,0,0,0-1.454-.477,1.867,1.867,0,0,0-1.141.853,4.892,4.892,0,0,0-.55,1.358,33.106,33.106,0,0,1-1.152,3.838,6.172,6.172,0,0,1-2.261,2.891,15.155,15.155,0,0,0,4.947-2.976A8.677,8.677,0,0,0,302.817,1050.92Z" transform="translate(-185.981 -1046.699)" fill="url(#radial-gradient)"/>
      <path id="Path_2639" data-name="Path 2639" d="M301.218,1061.614a15.148,15.148,0,0,0-4.947-2.975,6.161,6.161,0,0,1,2.261,2.889,33.127,33.127,0,0,1,1.152,3.839,4.885,4.885,0,0,0,.55,1.357,1.868,1.868,0,0,0,1.141.854,1.635,1.635,0,0,0,1.454-.478,2.319,2.319,0,0,0,.623-1.442,3.749,3.749,0,0,0-.635-2.274A8.738,8.738,0,0,0,301.218,1061.614Z" transform="translate(-185.981 -1043.813)" fill="url(#radial-gradient)"/>
      <path id="Path_2640" data-name="Path 2640" d="M308.647,1054.715a10.431,10.431,0,0,0-4.852-.14,59.865,59.865,0,0,0-7.94,2.253l4.776,1.337a23.956,23.956,0,0,0,4.272.914,8.462,8.462,0,0,0,4.312-.578,2.061,2.061,0,0,0,1.385-1.979A2.668,2.668,0,0,0,308.647,1054.715Z" transform="translate(-186.077 -1044.847)" fill="url(#radial-gradient)"/>
    </g>
    <g id="Group_558" data-name="Group 558" transform="translate(101.485 1057.621)">
      <path id="Path_2641" data-name="Path 2641" d="M116.675,1069.536c18.469,0,30-.322,40.176-.606,15.126-.422,27.073-.753,54.111.18l.31.011a16.321,16.321,0,0,0,6.6-.669,7.331,7.331,0,0,0,4.76-5.415,6.383,6.383,0,0,0-1.374-4.98,7.142,7.142,0,0,0-4.429-2.482,7.238,7.238,0,0,0-1.054-.079,6.232,6.232,0,0,0-3.6,1.093,5.092,5.092,0,0,0-2.163,4.421,4.222,4.222,0,0,0,3.261,3.788,3.641,3.641,0,0,0,2.736-.63,3.386,3.386,0,0,0,1.429-2.188.854.854,0,1,0-1.683-.293,1.68,1.68,0,0,1-.723,1.068,1.963,1.963,0,0,1-1.45.349,2.493,2.493,0,0,1-1.868-2.23,3.332,3.332,0,0,1,1.444-2.877,4.727,4.727,0,0,1,3.419-.718,5.413,5.413,0,0,1,3.364,1.872,4.632,4.632,0,0,1,1.007,3.607,5.694,5.694,0,0,1-3.69,4.088,15.072,15.072,0,0,1-5.929.555l-.313-.011c-27.09-.936-39.06-.6-54.217-.18-10.163.283-21.683.6-40.128.6a.861.861,0,0,0,0,1.722Z" transform="translate(-98.176 -1055.495)" fill="url(#radial-gradient)"/>
      <path id="Path_2642" data-name="Path 2642" d="M107.863,1073.215a3.739,3.739,0,0,0-.636,2.273,2.322,2.322,0,0,0,.624,1.442,1.633,1.633,0,0,0,1.452.478,1.871,1.871,0,0,0,1.142-.854,4.96,4.96,0,0,0,.55-1.357,32.861,32.861,0,0,1,1.151-3.839,6.177,6.177,0,0,1,2.261-2.89,15.173,15.173,0,0,0-4.947,2.975A8.736,8.736,0,0,0,107.863,1073.215Z" transform="translate(-100.162 -1052.359)" fill="url(#radial-gradient)"/>
      <path id="Path_2643" data-name="Path 2643" d="M109.461,1062.521a15.176,15.176,0,0,0,4.947,2.975,6.181,6.181,0,0,1-2.261-2.888,32.81,32.81,0,0,1-1.151-3.841,4.958,4.958,0,0,0-.55-1.357,1.875,1.875,0,0,0-1.142-.854,1.636,1.636,0,0,0-1.452.478,2.322,2.322,0,0,0-.624,1.443,3.736,3.736,0,0,0,.636,2.272A8.671,8.671,0,0,0,109.461,1062.521Z" transform="translate(-100.162 -1055.245)" fill="url(#radial-gradient)"/>
      <path id="Path_2644" data-name="Path 2644" d="M103.451,1068.6a10.4,10.4,0,0,0,4.852.14,59.48,59.48,0,0,0,7.94-2.252l-4.776-1.337a24.038,24.038,0,0,0-4.272-.914,8.464,8.464,0,0,0-4.312.577,2.063,2.063,0,0,0-1.383,1.979A2.659,2.659,0,0,0,103.451,1068.6Z" transform="translate(-101.485 -1053.393)" fill="url(#radial-gradient)"/>
    </g>
  </g>
</svg>
